<svg width="800" height="960" viewBox="0 0 800 960" fill="none" xmlns="http://www.w3.org/2000/svg">
  <rect width="800" height="960" fill="#F7FAF8"/>
  <circle cx="630" cy="174" r="182" fill="#C9F36A" fill-opacity="0.2"/>
  <circle cx="182" cy="826" r="230" fill="#0D7C66" fill-opacity="0.1"/>
  <rect x="152" y="172" width="496" height="572" rx="88" fill="#0F1A18"/>
  <rect x="214" y="234" width="114" height="114" rx="24" fill="#0D7C66"/>
  <rect x="344" y="234" width="114" height="114" rx="24" fill="#D9C06E"/>
  <rect x="474" y="234" width="114" height="114" rx="24" fill="#30514B"/>
  <rect x="214" y="364" width="114" height="114" rx="24" fill="#D5F3EA"/>
  <rect x="344" y="364" width="114" height="114" rx="24" fill="#244540"/>
  <rect x="474" y="364" width="114" height="114" rx="24" fill="#C9F36A"/>
  <rect x="214" y="494" width="114" height="114" rx="24" fill="#2E3C39"/>
  <rect x="344" y="494" width="114" height="114" rx="24" fill="#0D7C66"/>
  <rect x="474" y="494" width="114" height="114" rx="24" fill="#F4EDD3"/>
  <text x="400" y="810" text-anchor="middle" fill="#13211F" font-family="Arial, sans-serif" font-size="30" font-weight="700" letter-spacing="5">REKUN GRID</text>
</svg>
